 http://www.thedesiadda.com/

Big Boss - Season 4 - 5th Nov 2010 - Ind

Video
Format                           : MPEG-4 Visual
Format profile                   : Simple@L1
Format settings, BVOP            : No
Format settings, QPel            : No
Format settings, GMC             : No warppoints
Format settings, Matrix          : Default
Codec ID                         : XVID
Codec ID/Hint                    : XviD
Duration                         : 45mn 2s
Bit rate                         : 900 Kbps
Width                            : 512 pixels
Height                           : 384 pixels
Display aspect ratio             : 4/3
Frame rate                       : 25.000 fps
Resolution                       : 8 bits
Colorimetry                      : 4:2:0
Scan type                        : Progressive
Bits/(Pixel*Frame)               : 0.234
Stream size                      : 371 MiB
Writing library                  : Lavc51.54.0

Audio
Format                           : MPEG Audio
Format version                   : Version 1
Format profile                   : Layer 3
Codec ID                         : 55
Codec ID/Hint                    : MP3
Duration                         : 45mn 2s
Bit rate mode                    : Constant
Bit rate                         : 128 Kbps
Channel(s)                       : 2 channels
Sampling rate                    : 44.1 KHz
Resolution                       : 16 bits
Stream size                      : 41.2 MiB

-------------------------
Post Information
-------------------------
Ripped by............: yashpop

Posted on............: 05/11/2010